<?xml version="1.0" encoding="UTF-8" standalone="no"?>
<!-- Created with Inkscape (http://www.inkscape.org/) -->

<svg
   version="1.1"
   id="svg1"
   width="167.59599"
   height="155.51425"
   viewBox="0 0 167.59599 155.51425"
   sodipodi:docname="logoPrueba.svg"
   inkscape:version="1.4 (86a8ad7, 2024-10-11)"
   xmlns:inkscape="http://www.inkscape.org/namespaces/inkscape"
   xmlns:sodipodi="http://sodipodi.sourceforge.net/DTD/sodipodi-0.dtd"
   xmlns="http://www.w3.org/2000/svg"
   xmlns:svg="http://www.w3.org/2000/svg">
  <defs
     id="defs1">
    <inkscape:path-effect
       effect="fillet_chamfer"
       id="path-effect23"
       is_visible="true"
       lpeversion="1"
       nodesatellites_param="F,0,0,1,0,0,0,1 @ F,0,0,1,0,0,0,1 @ F,0,0,1,0,0,0,1 @ F,0,0,1,0,0,0,1 @ F,0,0,1,0,0,0,1 @ F,0,0,1,0,0,0,1 @ F,0,0,1,0,0,0,1 @ F,0,0,1,0,0,0,1"
       radius="0"
       unit="px"
       method="auto"
       mode="F"
       chamfer_steps="1"
       flexible="false"
       use_knot_distance="true"
       apply_no_radius="true"
       apply_with_radius="true"
       only_selected="false"
       hide_knots="false" />
  </defs>
  <sodipodi:namedview
     id="namedview1"
     pagecolor="#ffffff"
     bordercolor="#000000"
     borderopacity="0.25"
     inkscape:showpageshadow="2"
     inkscape:pageopacity="0.0"
     inkscape:pagecheckerboard="0"
     inkscape:deskcolor="#d1d1d1"
     showgrid="false"
     showguides="true"
     inkscape:zoom="2.2825407"
     inkscape:cx="189.48183"
     inkscape:cy="46.220424"
     inkscape:window-width="1920"
     inkscape:window-height="1009"
     inkscape:window-x="-8"
     inkscape:window-y="-8"
     inkscape:window-maximized="1"
     inkscape:current-layer="g1" />
  <g
     inkscape:groupmode="layer"
     inkscape:label="Image"
     id="g1"
     transform="translate(-286.11991,-83.281746)">
    <g
       id="g25"
       transform="translate(116.97492,-29.791364)">
      <path
         id="path24"
         d="m 174.14499,113.07311 h 157.59599 c 2.77,0 5,2.0516 5,4.6 v 146.31425 c 0,2.5484 -2.23,4.6 -5,4.6 H 174.14499 c -2.77,0 -5,-2.0516 -5,-4.6 V 117.67311 c 0,-2.5484 2.23,-4.6 5,-4.6 z"
         style="opacity:0.83612;fill:#e7c1a9;fill-opacity:0.959459;stroke-width:1.00157" />
      <path
         id="path25"
         style="opacity:0.83612;fill:#010101;fill-opacity:0.959459;stroke-width:1.00157"
         d="m 224.90625,120.04297 -25.16992,0.11719 c -0.88337,0.84239 -0.53918,1.62891 -0.0391,2.05078 l 2.97265,0.0176 c 3.14167,-0.22722 5.5079,2.23877 6.68555,4.28906 l 0.006,56.55664 c -1.50465,2.83899 -3.61997,3.87756 -5.20313,3.94336 l -3.67968,-0.0781 c -0.91584,0.56093 -1.53962,1.76176 -0.94532,2.29688 l 26.53516,-0.0332 c 0.0549,-0.84545 -0.28036,-1.57727 -1.66406,-2.01171 l -4.22071,-0.15625 c -3.73795,-0.65861 -3.71652,-2.40848 -4.41601,-3.94922 l 0.0391,-56.38086 c 0.55501,-2.77908 2.50041,-3.50911 4.11719,-4.48828 l 4.98242,-0.082 c 0.37814,-0.38833 0.44842,-1.55793 0,-2.0918 z m 28.3457,4.11328 c -0.56794,-0.0387 -1.13518,0.3077 -1.70312,1.1543 0.27105,2.96234 0.28986,5.54503 0.92969,9.06054 -7.32633,2.40496 -10.7356,13.1256 -6.11914,18.50977 0.54688,6.49998 -5.01236,16.32819 -6.11719,23.4668 -8.74245,16.79845 -18.02203,34.07297 -26.17774,52.04492 10.98987,-12.83553 21.14814,-26.22741 30.90235,-39.88672 0.0926,-2.21787 0.72792,-5.77286 -0.77539,-6.19531 -0.59743,-3.09605 -0.71838,-6.42965 -0.0781,-10.14453 2.21702,-9.10213 4.81288,-12.89986 7.43555,-16.72852 l 4.8789,-0.54297 c 4.80959,-2.1825 8.14328,-5.61977 8.83008,-11.30664 0.33965,-5.34473 -1.7713,-9.5456 -8.59765,-10.37891 l -1.70313,-7.89843 c -0.56794,-0.69195 -1.13713,-1.11564 -1.70508,-1.1543 z m 1.62696,12.58984 c 3.91667,-1.9e-4 7.09184,3.37524 7.09179,7.53907 5e-5,4.16383 -3.17512,7.53925 -7.09179,7.53906 -3.91667,2e-4 -7.09185,-3.37523 -7.0918,-7.53906 -5e-5,-4.16384 3.17512,-7.53927 7.0918,-7.53907 z m 15.50586,13.89063 c -0.41341,-0.0181 -0.83935,-0.0124 -1.27735,0.0176 -1.64942,0.34039 -3.03825,0.76772 -4.21875,1.26367 l -3.88672,0.16211 -0.11523,2.5293 c -2.74305,3.04765 -2.3444,7.14714 -2.12891,11.21484 -2.5301,5.87868 -7.56837,10.7095 -13.58203,13.25195 l 1.0957,7.94141 c 3.81465,-4.25384 6.93939,-9.68941 11.66407,-13.0332 3.33183,-3.29801 8.42805,-1.82934 11.50195,-2.0254 6.13074,-0.42211 9.32875,-5.399 9.96484,-10.73437 0.57711,-4.84066 -2.81655,-10.317 -9.01757,-10.58789 z m -1.41407,3.30273 c 3.91719,5e-5 7.63936,2.59228 7.63868,6.73633 -3.4e-4,4.14329 -3.72222,8.26948 -7.63868,8.26953 -3.91646,-5e-5 -7.09145,-3.35867 -7.09179,-7.50195 -6.8e-4,-4.14405 3.17461,-7.50386 7.09179,-7.50391 z m -27.46484,28.75196 c 0.74396,0.002 1.36093,0.59868 1.41602,1.36914 h -2.83204 c 0.0551,-0.77046 0.67206,-1.36701 1.41602,-1.36914 z m 43.64844,0.49218 c -1.96236,0.003 -3.92436,0.19904 -5.88672,0.27344 -4.12593,0.70074 -8.23126,1.50941 -12.21289,2.93164 -6.00468,2.29674 -11.05406,5.70797 -15.30664,10.04883 -2.1602,2.28176 -3.62014,4.98324 -5.06641,7.69336 -1.65444,3.23098 -2.23693,7.07495 -2.90234,10.87109 l -0.0274,8.21485 0.98633,6.10547 c 1.56919,4.65404 4.16384,9.08106 7.03711,13.44531 3.98126,4.13226 8.53675,7.7373 14.26563,10.26758 6.39614,2.1451 12.52345,3.17097 22.64453,2.49218 4.14859,0.13933 8.02312,-0.72978 11.96679,-1.34179 2.06213,-0.5732 6.0241,-0.50123 6.67969,-2.51953 -0.41697,-6.27044 -1.72766,-20.30553 1.61719,-22.3711 l 2.92969,0.0274 c 2.59819,-1.0997 1.00816,-2.47906 -0.0274,-2.62891 l -23.49414,-0.0273 c -1.36978,0.49065 -1.72181,1.96485 0.32813,2.68359 l 6.4082,-0.0547 c 5.4924,1.42617 4.71177,4.88208 5.36523,6.49024 l -0.0781,6.3789 c -2.6885,10.71144 -6.24119,9.24036 -9.80469,10.8711 H 280.1425 C 269.66246,249.76252 259.21272,246.4024 253.58195,229.295 l -0.62891,-2.6289 -1.15039,-3.42188 c 0.099,-3.81001 -0.13238,-7.83982 0.35547,-11.39062 0.28973,-2.83999 1.23833,-5.28616 2.2461,-7.69532 4.63185,-8.24077 10.42252,-15.6477 24.12304,-17.36718 3.04371,-0.39717 6.71958,-0.35903 10.13086,0.11718 4.46352,0.8022 8.57595,2.38345 11.84961,7.18164 1.95749,2.89101 3.34222,5.89646 4.36133,9.30274 0.56806,1.11515 1.88606,2.14778 2.50977,0.0293 -0.34684,-4.60014 -0.54419,-8.70583 -1.3711,-13.66602 -0.0715,-0.82565 -2.88252,-2.80494 -5.35547,-3.33984 -3.59807,-1.76683 -7.80269,-2.32422 -11.96679,-2.95899 -1.17742,-0.20686 -2.35384,-0.27495 -3.53125,-0.27344 z m -45.03711,1.46875 h 2.83203 c -0.0551,0.77046 -0.67206,1.36701 -1.41602,1.36914 -0.74396,-0.002 -1.36093,-0.59868 -1.41601,-1.36914 z" />
    </g>
  </g>
</svg>
